<?xml version="1.0" encoding="utf-8"?>
<!-- Generator: Adobe Illustrator 27.5.0, SVG Export Plug-In . SVG Version: 6.00 Build 0)  -->
<svg version="1.1" id="Capa_2" xmlns="http://www.w3.org/2000/svg" xmlns:xlink="http://www.w3.org/1999/xlink" x="0px" y="0px"
	 viewBox="0 0 2122 2122" style="enable-background:new 0 0 2122 2122;" xml:space="preserve">
<path style="fill:#E7B680;" d="M1475.429,950.164c-26.327-23.443-55.485-44.214-84.003-65.471
	c-8.498,70.576-52.193,136.94-96.581,190.065c-16.066,19.228-33.114,37.613-50.813,55.344c-2.704,2.709-0.106,7.446,3.221,7.888
	c61.691,8.2,119.806-22.573,165.122-61.872c33.877-29.379,63.059-64.315,87.802-102.005
	C1492.229,965.841,1484.021,957.815,1475.429,950.164z"/>
<path style="fill:#E7B680;" d="M1605.258,1137.918l-35.836-72.605c-34.809,55.954-83.589,104.011-140.434,134.979
	c-23.831,12.983-49.336,22.962-75.912,28.599c-4.44,0.942-6.361,7.604-1.328,9.444c91.909,33.601,191.59,3.291,270.282-50.85
	C1617.252,1170.725,1611.737,1154.158,1605.258,1137.918z"/>
<path style="fill:#E7B680;" d="M1640.783,1291.318c-9.365,7.754-19.113,15.062-29.357,21.741
	c-34.919,22.765-74.375,37.721-115.329,45.166c-25.59,4.653-51.59,6.533-77.581,6.58c-4.114,0.008-5.093,5.068-3.362,7.862
	c33.001,53.234,85.961,91.993,143.941,114.268c18.763,7.209,38.289,12.619,58.131,16.489
	C1639.149,1433.515,1647.536,1364.603,1640.783,1291.318z"/>
<path style="fill:#FEE3C6;" d="M824.405,1664.226c33.002-2.698,64.732-15.491,93.817-30.714
	c27.475-14.381,53.449-31.814,77.572-51.28c3.063-2.472,7.24-0.157,7.863,3.362c4.077,23.028-0.132,46.659-8.277,68.344
	c-16.26,43.291-47.569,81.265-83.415,110.065c34.027,25.785,71.563,46.495,110.331,60.653l0.347,0.127
	c0.651,0.237,1.301,0.471,1.951,0.704c0.258,0.093,0.516,0.184,0.775,0.275c0.985,0.35,1.971,0.696,2.957,1.038
	c0.395,0.137,0.789,0.273,1.183,0.409c0.486,0.166,0.972,0.331,1.458,0.496c0.508,0.172,1.017,0.343,1.526,0.512
	c0.4,0.133,0.8,0.268,1.199,0.4c0.854,0.282,1.709,0.56,2.564,0.835c0.342,0.11,0.684,0.219,1.026,0.328
	c0.659,0.21,1.317,0.418,1.976,0.624c0.308,0.097,0.616,0.193,0.924,0.289c0.908,0.281,1.815,0.559,2.724,0.833
	c0.234,0.071,0.468,0.139,0.701,0.209c0.776,0.233,1.552,0.462,2.329,0.689c0.234,0.069,0.469,0.137,0.703,0.205
	c0.977,0.283,1.954,0.564,2.932,0.839c4.524,1.271,9.065,2.462,13.622,3.572c2.278,0.556,4.561,1.091,6.847,1.606
	c14.861,3.35,29.878,5.86,44.979,7.555c3.485,0.392,6.975,0.74,10.468,1.045c3.493,0.305,6.99,0.567,10.489,0.786
	c4.666,0.292,9.337,0.509,14.011,0.651c2.336,0.07,4.674,0.123,7.012,0.156c2.338,0.033,4.676,0.048,7.015,0.044
	c3.508-0.006,7.016-0.053,10.524-0.143c2.339-0.059,4.677-0.138,7.015-0.234c1.169-0.048,2.338-0.1,3.507-0.158
	c2.337-0.115,4.674-0.248,7.01-0.399c2.335-0.151,4.67-0.32,7.005-0.508c3.5-0.281,6.999-0.603,10.493-0.965
	c2.21-0.229,4.417-0.475,6.624-0.736c2.447-0.29,4.892-0.598,7.335-0.927c2.322-0.313,4.643-0.644,6.961-0.992
	c2.487-0.374,4.971-0.769,7.451-1.183c1.971-0.329,3.94-0.671,5.907-1.026c3.637-0.655,7.266-1.352,10.888-2.093
	c1.398-0.286,2.795-0.581,4.191-0.88c1.789-0.384,3.576-0.777,5.361-1.181c0.523-0.119,1.045-0.238,1.568-0.358
	c1.748-0.402,3.493-0.814,5.236-1.236c1.415-0.343,2.829-0.689,4.241-1.045c1.139-0.287,2.276-0.578,3.413-0.873
	c3.664-0.952,7.316-1.951,10.957-2.991c3.913-1.118,7.813-2.286,11.698-3.504c0.709-0.222,1.417-0.446,2.125-0.671
	c1.513-0.482,3.024-0.972,4.533-1.47c0.742-0.245,1.484-0.491,2.225-0.74c6.006-2.013,11.972-4.146,17.895-6.397
	c0.726-0.276,1.452-0.554,2.177-0.834c1.337-0.516,2.671-1.037,4.002-1.565c2.619-1.037,5.229-2.094,7.829-3.177
	c5.088-2.12,10.137-4.33,15.149-6.625c7.819-3.581,15.544-7.371,23.157-11.37c2.082-1.094,4.156-2.203,6.221-3.327
	s4.122-2.265,6.171-3.42c1.024-0.578,2.046-1.159,3.066-1.744c2.039-1.17,4.07-2.356,6.092-3.557
	c3.032-1.802,6.045-3.637,9.035-5.506c6.284-3.928,12.472-8.006,18.56-12.229c1.637-1.136,3.269-2.28,4.891-3.437
	c3.827-2.729,7.612-5.516,11.353-8.361c1.87-1.422,3.729-2.859,5.577-4.31c1.848-1.451,3.684-2.917,5.509-4.396
	c4.563-3.699,9.052-7.487,13.465-11.362c0.984-0.864,1.963-1.733,2.94-2.605c0.172-0.154,0.345-0.307,0.516-0.461
	c0.954-0.854,1.904-1.712,2.849-2.574c0.142-0.129,0.283-0.258,0.425-0.388c0.981-0.896,1.959-1.793,2.931-2.697
	c0.041-0.038,0.083-0.077,0.124-0.115c0.968-0.9,1.932-1.804,2.892-2.711c0.092-0.087,0.185-0.174,0.276-0.26
	c0.97-0.919,1.936-1.842,2.898-2.768c0.1-0.096,0.2-0.193,0.299-0.288c61.408-59.237,105.333-133.847,130.652-214.66
	c-19.844-3.87-39.371-9.281-58.136-16.49c-57.979-22.275-110.94-61.034-143.941-114.268c-1.732-2.794-0.752-7.855,3.362-7.862
	c25.991-0.047,51.991-1.927,77.581-6.58c40.953-7.446,80.41-22.401,115.329-45.166c10.244-6.679,19.993-13.986,29.357-21.741
	c-2.876-35.086-9.044-69.922-18.731-103.847c-78.695,54.15-178.385,84.468-270.303,50.864c-5.033-1.84-3.113-8.502,1.328-9.444
	c26.576-5.638,52.08-15.616,75.912-28.599c56.844-30.968,105.625-79.024,140.434-134.979c-19.529-32.933-42.624-63.677-69.244-91.2
	c-24.745,37.696-53.92,72.621-87.802,102.005c-45.316,39.299-103.431,70.072-165.122,61.872c-3.327-0.442-5.925-5.179-3.221-7.888
	c17.699-17.731,34.747-36.116,50.813-55.344c44.388-53.125,88.083-119.489,96.581-190.065c0.001-0.005,0.002-0.011,0.002-0.016
	c-34.209-25.5-67.503-51.694-93.872-84.04l-0.001-0.001c-0.502-0.617-1.002-1.236-1.5-1.857c-0.026-0.031-0.051-0.063-0.076-0.095
	c-1.521-1.9-3.018-3.821-4.49-5.765c-0.01-0.013-0.02-0.027-0.03-0.04c-0.458-0.606-0.914-1.215-1.368-1.825
	c-0.073-0.097-0.145-0.195-0.217-0.292c-0.385-0.519-0.768-1.041-1.149-1.563c-0.104-0.143-0.208-0.285-0.312-0.428
	c-0.393-0.541-0.783-1.083-1.172-1.626c-0.06-0.084-0.121-0.168-0.181-0.252c-0.916-1.285-1.82-2.579-2.714-3.885
	c-0.095-0.138-0.189-0.277-0.283-0.416c-0.34-0.498-0.677-0.997-1.014-1.498c-0.126-0.188-0.251-0.376-0.377-0.564
	c-0.318-0.478-0.635-0.956-0.951-1.436c-0.113-0.173-0.227-0.345-0.34-0.518c-0.331-0.506-0.66-1.014-0.987-1.523
	c-0.099-0.154-0.199-0.308-0.298-0.463c-0.421-0.657-0.839-1.317-1.254-1.979c-7.706-12.302-14.149-25.017-19.532-38.08
	c-30.48-6.813-61.668-12.166-93.106-15.97c-12.158,14.331-32.323,23.231-54.517,22.139c-34.658-1.706-61.138-27.134-59.144-56.795
	c1.993-29.661,31.706-52.322,66.364-50.616c13.844,0.681,26.383,5.148,36.324,12.158c25.971-8.972,52.659-16.373,79.801-22.148
	c-0.301-3.829-0.567-7.67-0.798-11.522c-0.084-1.4-0.164-2.802-0.24-4.204c-0.189-3.507-0.352-7.023-0.491-10.547
	c-0.028-0.705-0.055-1.41-0.081-2.115c-0.016-0.451-0.032-0.901-0.048-1.353c-9.267,6.043-19.055,11.283-29.333,15.52
	c-28.383,11.7-61.776,17.197-92.226,11.935c-35.416-6.12-65.211-27.717-96.627-44.465c0.017,0.452,0.027,0.907,0.027,1.365
	c0,12.302-6.396,22.275-14.286,22.275c-7.89,0-14.286-9.973-14.286-22.275c0-5.017,1.065-9.647,2.86-13.371
	c-11.574-4.482-23.589-7.684-36.366-8.713c-16.662-1.341-32.622,2.233-47.948,8.041c1.998,3.832,3.197,8.718,3.197,14.042
	c0,12.302-6.396,22.275-14.286,22.275c-7.89,0-14.286-9.973-14.286-22.275c0-0.879,0.033-1.744,0.097-2.596
	c-4.093,2.09-8.14,4.237-12.141,6.382c-26.948,14.445-53.098,30.702-82.136,40.756c-13.822,4.786-27.899,7.6-42.121,9.076
	c8.426,2.685,16.781,5.533,25.059,8.543c8.817-4.069,18.971-6.155,29.647-5.618c31.258,1.574,55.14,25.033,53.342,52.397
	c-1.798,27.364-28.596,48.271-59.854,46.697c-20.117-1.013-37.177-11.092-46.305-25.442c-30.559,3.862-60.879,9.188-90.539,15.895
	c3.585,12.53,7.662,24.963,12.281,37.281c0.467,1.246,0.94,2.49,1.417,3.733c0.478,1.242,0.96,2.483,1.448,3.721
	c4.632,11.764,9.705,23.352,15.052,34.828c0.562,1.208,1.128,2.415,1.697,3.62c1.138,2.411,2.286,4.817,3.445,7.22
	c2.028,4.204,4.086,8.396,6.167,12.578c0.297,0.598,0.595,1.195,0.893,1.792c0.894,1.792,1.792,3.582,2.693,5.37
	c0.601,1.192,1.203,2.384,1.806,3.575c3.318,6.552,6.674,13.087,10.034,19.619l0.917,1.781c2.749,5.344,5.5,10.686,8.235,16.033
	c0.304,0.594,0.608,1.189,0.911,1.783c3.641,7.131,7.25,14.273,10.784,21.441c0.294,0.598,0.589,1.195,0.882,1.792
	c5.87,11.955,11.526,23.987,16.774,36.172c0.525,1.218,1.045,2.439,1.562,3.66c0.516,1.221,1.029,2.445,1.536,3.669
	c0.254,0.612,0.507,1.225,0.758,1.838c0.755,1.84,1.499,3.684,2.233,5.531c0.245,0.616,0.488,1.233,0.73,1.849
	c0.484,1.234,0.964,2.469,1.438,3.707c0.474,1.237,0.943,2.477,1.407,3.718c0.464,1.241,0.922,2.485,1.375,3.73
	c0.68,1.868,1.346,3.742,2,5.62c0.435,1.252,0.866,2.506,1.29,3.762c2.333,6.911,4.484,13.889,6.421,20.95
	c0.199,0.726,0.396,1.452,0.591,2.179c0.046,0.172,0.091,0.344,0.137,0.517c0.143,0.537,0.286,1.073,0.427,1.61
	c0.065,0.25,0.13,0.5,0.194,0.75c0.127,0.487,0.253,0.974,0.377,1.461c0.06,0.234,0.119,0.469,0.179,0.703
	c0.121,0.479,0.243,0.959,0.363,1.439c0.065,0.259,0.129,0.519,0.193,0.778c0.116,0.469,0.231,0.937,0.345,1.405
	c0.062,0.254,0.124,0.509,0.186,0.763c0.123,0.512,0.245,1.023,0.367,1.535c0.044,0.187,0.089,0.373,0.133,0.56
	c0.143,0.607,0.284,1.214,0.425,1.82l0.075,0.324c9.826,42.779,12.216,85.862,10.726,129.121c0.007,0.007,0.015,0.014,0.022,0.021
	c50.474,48.703,122.255,76.466,192.265,69.921c3.641-0.341,6.601,3.325,5.123,6.798c-7.852,18.442-21.374,33.266-39.747,41.559
	c-34.118,15.398-75.353,7.929-109.547-3.163c-18.881-6.125-37.919-14.13-55.739-24.093c-0.005-0.003-0.01-0.005-0.015-0.009
	c-2.649,22.059-5.659,44.141-8.576,66.228c-2.134,16.158-4.22,32.318-6.078,48.476c2.924,2.472,5.819,4.974,8.942,7.236
	c59.007,42.721,137.638,38.88,206.897,40.719c3.455,0.091,4.71,4.093,3.862,6.783c-6.907,21.939-21.134,40.531-39.389,54.336
	c-34.439,26.044-79.869,36.079-122.339,36.81c-20.987,0.361-42.938-1.384-63.983-6.314c0.649,10.74,1.624,21.47,2.994,32.19
	c0.007,0.052,0.013,0.105,0.019,0.157c0.091,0.711,0.184,1.421,0.279,2.132c0.007,0.051,0.014,0.103,0.021,0.154
	c0.101,0.758,0.204,1.517,0.309,2.276c0.007,0.048,0.014,0.096,0.021,0.144c0.132,0.947,0.27,1.894,0.411,2.84
	c0.047,0.318,0.096,0.635,0.145,0.953c0.13,0.852,0.263,1.704,0.4,2.555c0.024,0.152,0.048,0.303,0.072,0.455
	c0.16,0.981,0.327,1.962,0.496,2.942c0.054,0.311,0.109,0.621,0.164,0.931c0.137,0.774,0.276,1.547,0.419,2.319
	c0.045,0.246,0.09,0.492,0.136,0.737c0.183,0.976,0.371,1.951,0.563,2.924c0.052,0.261,0.105,0.521,0.157,0.782
	c0.154,0.768,0.311,1.536,0.471,2.302c0.062,0.298,0.124,0.596,0.187,0.894c0.201,0.947,0.405,1.894,0.615,2.84
	c0.057,0.255,0.115,0.51,0.172,0.765c0.17,0.758,0.343,1.515,0.519,2.271c0.073,0.316,0.146,0.631,0.221,0.946
	c0.221,0.936,0.445,1.871,0.674,2.805c0.059,0.241,0.121,0.481,0.18,0.722c0.186,0.749,0.375,1.498,0.566,2.245
	c0.087,0.339,0.174,0.678,0.262,1.016c0.205,0.789,0.413,1.576,0.624,2.363c0.075,0.281,0.15,0.562,0.227,0.842
	c0.225,0.831,0.454,1.66,0.686,2.489c0.103,0.367,0.207,0.733,0.311,1.1c0.191,0.672,0.384,1.343,0.579,2.014
	c0.089,0.304,0.176,0.609,0.265,0.912c0.26,0.882,0.524,1.763,0.792,2.643c0.12,0.397,0.243,0.793,0.365,1.189
	c0.181,0.584,0.363,1.168,0.546,1.75c0.121,0.385,0.241,0.769,0.363,1.153c0.269,0.844,0.542,1.686,0.818,2.528
	c0.142,0.432,0.286,0.863,0.429,1.294c0.173,0.521,0.348,1.042,0.524,1.562c0.148,0.438,0.296,0.876,0.446,1.314
	c0.269,0.785,0.542,1.569,0.817,2.353c0.161,0.458,0.325,0.915,0.488,1.372c0.184,0.515,0.369,1.031,0.555,1.546
	c0.166,0.458,0.333,0.917,0.501,1.375c0.196,0.532,0.394,1.065,0.593,1.596c0.272,0.728,0.546,1.455,0.823,2.182
	c0.168,0.44,0.335,0.879,0.504,1.317c0.201,0.519,0.403,1.038,0.606,1.556c0.151,0.385,0.303,0.768,0.456,1.153
	c0.362,0.914,0.729,1.827,1.099,2.739c0.141,0.348,0.282,0.695,0.425,1.042c0.219,0.533,0.439,1.065,0.661,1.596
	c0.158,0.379,0.317,0.757,0.476,1.135c0.431,1.022,0.865,2.042,1.306,3.061c0.095,0.221,0.19,0.442,0.286,0.663
	c0.247,0.568,0.496,1.135,0.747,1.701c0.138,0.311,0.275,0.623,0.414,0.934c0.838,1.883,1.693,3.759,2.565,5.629
	c0.111,0.237,0.221,0.474,0.332,0.711c0.286,0.609,0.572,1.217,0.862,1.824c0.031,0.065,0.062,0.13,0.093,0.195
	c0.61,1.277,1.228,2.551,1.853,3.822c0.077,0.155,0.153,0.311,0.23,0.467c0.317,0.642,0.635,1.282,0.956,1.922
	c0.049,0.097,0.098,0.194,0.147,0.291c0.669,1.331,1.346,2.658,2.032,3.981c0.013,0.025,0.026,0.049,0.039,0.074
	c0.354,0.682,0.711,1.364,1.069,2.044c0.035,0.067,0.071,0.134,0.106,0.201c1.082,2.051,2.185,4.093,3.308,6.125
	c0.029,0.054,0.059,0.107,0.089,0.161c1.134,2.049,2.288,4.089,3.463,6.119c0.02,0.034,0.04,0.069,0.06,0.104
	c4.403,7.604,9.089,15.068,14.034,22.379C819.404,1664.409,821.904,1664.431,824.405,1664.226z"/>
<path style="fill:#15162B;" d="M576.781,1893.51c52.18,8.404,104.044-8.2,152.674-25.929l6.814-2.487
	c45.221-16.534,91.998-33.62,140.153-31.12c42.283,2.205,82.66,19.498,121.705,36.221c18.373,7.866,37.369,16.002,56.494,22.57
	c41.535,14.263,85.627,21.306,129.641,21.303c62.097-0.003,124.024-14.027,178.246-41.579
	c121.298-61.636,206.638-176.254,228.782-302.021c-5.677,12.136-11.814,24.051-18.406,35.708
	c-30.51,107.735-108.555,203.379-214.898,257.417c-90.294,45.886-202.492,53.262-300.126,19.735
	c-18.775-6.446-37.6-14.51-55.805-22.307c-39.851-17.067-81.057-34.714-125.113-37.011c-50.185-2.614-97.937,14.833-144.1,31.712
	l-6.804,2.485c-47.4,17.274-97.836,33.481-147.676,25.452c-47.044-7.571-96.664-45.744-94.791-94.209
	c2.102-54.31,63.876-87.12,120.984-99.715c75.038-16.545,154.73-16.187,230.947,0.014c-3.16-3.959-6.24-7.974-9.242-12.041
	c-74.151-14.203-151.144-13.751-223.853,2.283c-60.748,13.399-126.485,49.087-128.804,109.074
	C471.519,1842.984,525.536,1885.261,576.781,1893.51z"/>
<path style="fill:#E7B680;" d="M943.426,1259.64c18.373-8.293,31.895-23.117,39.747-41.559c1.479-3.473-1.481-7.139-5.123-6.798
	c-70.01,6.545-141.791-21.218-192.265-69.921c-1.044,30.268-3.994,60.623-7.645,91.022c17.82,9.963,36.858,17.968,55.739,24.093
	C868.073,1267.569,909.308,1275.038,943.426,1259.64z"/>
<path style="fill:#E7B680;" d="M979.311,1395.035c-69.259-1.839-147.89,2.002-206.897-40.719c-3.123-2.261-6.017-4.762-8.939-7.233
	c-5.363,46.6-8.782,93.175-5.98,139.574c21.035,4.924,42.974,6.668,63.951,6.307c42.47-0.731,87.9-10.766,122.339-36.81
	c18.255-13.805,32.482-32.397,39.389-54.336C984.02,1399.127,982.766,1395.126,979.311,1395.035z"/>
<path style="fill:#E7B680;" d="M995.379,1653.938c8.145-21.684,12.354-45.316,8.277-68.344c-0.623-3.519-4.799-5.834-7.863-3.362
	c-24.124,19.466-50.097,36.899-77.572,51.28c-29.084,15.223-60.814,28.015-93.817,30.714c-2.458,0.201-4.915,0.184-7.374,0.242
	c3.012,4.452,6.029,8.904,9.23,13.239c3.002,4.067,6.082,8.082,9.242,12.041c22.145,27.743,48.099,52.745,76.474,74.245
	C947.818,1735.194,979.121,1697.224,995.379,1653.938z"/>
<path style="fill:#FEE3C6;" d="M1164.011,654.997c5.234,5.49,9.216,11.868,11.601,18.804c21.398-2.765,43.05-4.47,64.707-5.108
	c-1.883-10.989-3.322-22.126-4.411-33.38C1211.499,640.553,1187.467,647.128,1164.011,654.997z"/>
<path style="fill:#FEE3C6;" d="M743.676,664.828c3.337-6.188,8.083-11.654,13.858-16.099c-14.694-5.134-29.626-9.757-44.747-13.856
	c-12.323-0.099-24.695-0.847-37.048-1.846c-13.195-1.068-26.277-2.885-39.296-5.039c-0.319-3.078-0.613-6.161-0.888-9.245
	c-0.044-0.007-0.088-0.013-0.132-0.02c0.154,1.722,0.312,3.445,0.479,5.165c0.118,1.219,0.24,2.437,0.365,3.654
	c1.001,9.74,2.217,19.444,3.668,29.107c0.114,0.757,0.231,1.513,0.348,2.269C674.792,658.164,709.596,660.146,743.676,664.828z"/>
<path style="fill:#FEE3C6;" d="M738.364,683.151c0.198-3.011,0.699-5.943,1.475-8.777c-32.307-4.31-65.25-6.158-97.937-5.513
	c0.748,4.36,1.543,8.712,2.393,13.053c0.469,2.396,0.954,4.789,1.454,7.18c0.25,1.195,0.505,2.39,0.763,3.583
	c0.517,2.387,1.05,4.771,1.599,7.153c0.549,2.381,1.115,4.759,1.697,7.134c0.582,2.375,1.181,4.746,1.797,7.114
	c0.199,0.765,0.403,1.529,0.606,2.293c29.028-6.579,58.68-11.849,88.57-15.732C738.837,695.134,737.963,689.24,738.364,683.151z"/>
<path style="fill:#FEE3C6;" d="M1177.842,683.571c0.326,2.785,0.402,5.628,0.208,8.511c-0.46,6.846-2.4,13.317-5.533,19.204
	c27.806,3.515,55.401,8.23,82.476,14.08c-5.498-15.183-9.678-30.798-12.842-46.75
	C1220.632,679.199,1199.111,680.854,1177.842,683.571z"/>
<path style="fill:#E7B680;" d="M634.717,608.533c37.05,5.379,73.526,13.758,108.794,24.996c14.222-1.476,28.299-4.29,42.121-9.076
	c29.038-10.054,55.188-26.311,82.136-40.756c4.001-2.145,8.048-4.291,12.141-6.382c0.825-11.078,6.862-19.678,14.189-19.678
	c4.475,0,8.469,3.21,11.089,8.232c15.326-5.809,31.286-9.383,47.948-8.041c12.777,1.029,24.792,4.231,36.366,8.713
	c2.606-5.407,6.754-8.904,11.426-8.904c7.596,0,13.806,9.243,14.259,20.909c31.416,16.749,61.211,38.346,96.627,44.465
	c30.45,5.261,63.843-0.235,92.226-11.935c10.278-4.237,20.066-9.477,29.333-15.52c0.012-0.008,0.024-0.015,0.036-0.023
	c-3.496-98.991,10.611-203.978-19.12-295.206c-0.031-0.096-0.063-0.193-0.094-0.289c-0.18-0.548-0.361-1.096-0.543-1.644
	c-0.059-0.178-0.119-0.355-0.179-0.532c-0.556-1.656-1.126-3.307-1.711-4.954c-0.08-0.225-0.16-0.451-0.241-0.675
	c-0.161-0.451-0.324-0.901-0.488-1.35c-0.104-0.286-0.208-0.572-0.313-0.858c-0.163-0.443-0.326-0.886-0.491-1.329
	c-0.103-0.278-0.209-0.555-0.313-0.833c-0.259-0.686-0.52-1.371-0.784-2.056c-0.161-0.418-0.322-0.837-0.485-1.254
	c-0.132-0.337-0.266-0.673-0.399-1.009c-0.161-0.407-0.322-0.812-0.484-1.218c-0.141-0.351-0.282-0.702-0.425-1.053
	c-0.172-0.423-0.344-0.845-0.518-1.267c-0.124-0.301-0.247-0.603-0.372-0.904c-0.29-0.699-0.584-1.398-0.882-2.096
	c-0.094-0.222-0.191-0.444-0.287-0.666c-0.224-0.522-0.449-1.044-0.676-1.565c-0.125-0.285-0.249-0.568-0.375-0.853
	c-0.203-0.46-0.407-0.92-0.613-1.379c-0.128-0.288-0.257-0.575-0.386-0.862c-0.261-0.578-0.524-1.155-0.79-1.732
	c-0.068-0.149-0.136-0.298-0.205-0.447c-0.324-0.701-0.653-1.401-0.983-2.101c-0.13-0.273-0.261-0.547-0.392-0.821
	c-0.229-0.481-0.459-0.961-0.692-1.441c-0.12-0.247-0.24-0.495-0.361-0.742c-0.268-0.549-0.538-1.097-0.811-1.644
	c-0.095-0.191-0.19-0.384-0.285-0.575c-0.357-0.713-0.717-1.424-1.081-2.135c-0.097-0.191-0.197-0.38-0.294-0.57
	c-0.272-0.529-0.547-1.058-0.824-1.586c-0.14-0.268-0.281-0.536-0.423-0.803c-0.252-0.478-0.507-0.955-0.762-1.432
	c-0.133-0.248-0.265-0.496-0.4-0.743c-0.384-0.709-0.77-1.418-1.161-2.125c-1.86-3.363-4.022-6.717-6.428-9.976
	c-1.203-1.629-2.467-3.234-3.785-4.804c-0.165-0.196-0.33-0.392-0.497-0.587c-0.333-0.39-0.669-0.778-1.008-1.164
	c-0.339-0.385-0.682-0.768-1.027-1.148c-1.037-1.141-2.101-2.26-3.19-3.349c-0.181-0.182-0.364-0.363-0.546-0.543
	c-0.366-0.36-0.734-0.716-1.106-1.07c-0.185-0.177-0.372-0.353-0.558-0.528c-0.56-0.525-1.127-1.042-1.698-1.551
	c-0.191-0.17-0.382-0.338-0.573-0.506c-2.108-1.845-4.285-3.573-6.514-5.158c-0.203-0.144-0.406-0.287-0.609-0.429
	c-0.61-0.425-1.224-0.839-1.841-1.242c-0.617-0.403-1.238-0.794-1.861-1.172c-5.402-3.284-11.021-5.662-16.611-6.757
	c-0.215-0.042-0.43-0.082-0.645-0.12c-1.719-0.306-3.435-0.489-5.139-0.539c-0.213-0.006-0.427-0.01-0.639-0.012
	c-0.426-0.004-0.85,0-1.274,0.013c-0.424,0.013-0.847,0.035-1.269,0.065s-0.843,0.07-1.263,0.119
	c-2.521,0.29-5.002,0.902-7.422,1.875c-0.806,0.324-1.605,0.689-2.397,1.094c-0.198,0.101-0.396,0.206-0.592,0.312
	c-0.394,0.214-0.786,0.437-1.176,0.671c-1.168,0.702-2.318,1.501-3.445,2.399c-0.47,0.375-0.927,0.762-1.372,1.16
	c-1.213,1.087-2.331,2.263-3.373,3.504c-0.596,0.711-1.167,1.443-1.716,2.196c-0.147,0.201-0.292,0.404-0.435,0.607
	c-0.273,0.388-0.541,0.779-0.804,1.175c-0.66,0.999-1.287,2.025-1.887,3.072c-0.15,0.262-0.298,0.524-0.445,0.789
	c-0.293,0.528-0.58,1.061-0.861,1.598c-0.422,0.805-0.831,1.618-1.23,2.438c-1.197,2.457-2.304,4.965-3.388,7.444
	c-18.399,42.037-36.798,84.074-55.197,126.111c-1.081-0.262-2.163-0.518-3.246-0.769c-2.166-0.5-4.339-0.977-6.515-1.429
	c-1.089-0.227-2.178-0.446-3.269-0.66c-1.257-0.246-2.515-0.482-3.775-0.713c-2.021-0.37-4.044-0.721-6.072-1.051
	c-5.485-0.889-10.996-1.628-16.521-2.218c-2.21-0.236-4.423-0.448-6.638-0.636c-3.939-0.334-7.886-0.589-11.836-0.773
	c-4.841,11.474-7.522,23.854-7.621,36.341c-0.022,2.743-2.251,4.95-4.989,4.95h-0.039c-2.755-0.022-4.972-2.272-4.95-5.028
	c0.099-12.51,2.547-24.921,6.993-36.577c-1.401-0.018-2.802-0.029-4.203-0.028c-5.576,0.005-11.153,0.159-16.722,0.46
	c-1.705,12.919-0.873,26.167,2.705,38.733c0.752,2.65-0.782,5.41-3.432,6.165c-0.458,0.129-0.916,0.193-1.369,0.193
	c-2.173,0-4.171-1.432-4.797-3.625c-3.764-13.222-4.775-27.13-3.23-40.753c-9.054,0.782-18.075,1.959-27.028,3.52
	c3.424,11.596,8.965,22.562,16.47,32.086c1.705,2.163,1.333,5.301-0.833,7.006c-0.913,0.721-2.003,1.069-3.084,1.069
	c-1.476,0-2.938-0.652-3.922-1.902c-8.491-10.776-14.707-23.225-18.459-36.383c-24.783,5.14-48.937,13.271-71.715,24.322
	c-16.191-23.603-32.832-46.896-49.912-69.863c-1.898-2.552-3.801-5.1-5.709-7.644c-2.993-3.989-6.003-7.965-9.022-11.934
	c-8.534-11.217-17.169-22.358-25.911-33.413c-5.163-6.527-11.064-13.272-17.534-19.051c-0.294-0.262-0.59-0.523-0.886-0.781
	c-1.185-1.034-2.39-2.035-3.611-2.994c-0.917-0.719-1.843-1.416-2.778-2.087c-0.624-0.447-1.251-0.882-1.883-1.306
	c-0.316-0.211-0.633-0.42-0.951-0.625c-0.636-0.411-1.276-0.808-1.919-1.192c-0.644-0.384-1.292-0.753-1.943-1.109
	c-0.977-0.533-1.962-1.033-2.956-1.497c-0.993-0.464-1.995-0.892-3.004-1.281c-0.672-0.259-1.349-0.501-2.027-0.725
	c-0.68-0.224-1.362-0.429-2.048-0.616c-0.685-0.186-1.373-0.354-2.065-0.501c-0.346-0.073-0.692-0.142-1.04-0.206
	c-0.695-0.127-1.392-0.234-2.092-0.319c-0.7-0.085-1.403-0.149-2.109-0.191c-0.705-0.042-1.414-0.061-2.124-0.057
	c-0.711,0.004-1.424,0.03-2.14,0.081c-0.358,0.026-0.716,0.057-1.075,0.095c-1.795,0.188-3.605,0.528-5.427,1.036
	c-1.813,0.505-3.53,1.145-5.157,1.907c-0.65,0.305-1.287,0.629-1.909,0.972c-0.43,0.237-0.85,0.486-1.267,0.741
	c-0.368,0.225-0.731,0.456-1.089,0.695c-0.41,0.273-0.815,0.551-1.212,0.841c-0.567,0.414-1.121,0.846-1.662,1.294
	c-0.27,0.224-0.538,0.452-0.802,0.684c-0.399,0.351-0.788,0.713-1.172,1.081c-0.253,0.242-0.502,0.487-0.748,0.736
	c-0.868,0.878-1.701,1.799-2.495,2.764c-0.455,0.552-0.897,1.117-1.328,1.695c-0.432,0.578-0.851,1.168-1.26,1.77
	c-0.204,0.301-0.407,0.605-0.605,0.911c-0.32,0.493-0.63,0.995-0.935,1.502c-0.58,0.962-1.136,1.948-1.668,2.956
	c-0.32,0.607-0.632,1.222-0.936,1.845c-0.173,0.354-0.343,0.711-0.511,1.07c-0.602,1.29-1.172,2.608-1.71,3.951
	c-0.207,0.515-0.409,1.033-0.606,1.555c-0.494,1.306-0.96,2.631-1.401,3.971c-0.205,0.623-0.405,1.248-0.599,1.877
	c-0.116,0.376-0.229,0.753-0.342,1.13c-0.224,0.755-0.44,1.515-0.65,2.276c-0.288,1.047-0.561,2.099-0.824,3.154
	c-0.047,0.189-0.094,0.378-0.14,0.567c-0.165,0.676-0.325,1.352-0.48,2.029c-0.088,0.385-0.175,0.77-0.26,1.155
	c-0.152,0.69-0.299,1.38-0.442,2.07c-0.11,0.529-0.217,1.057-0.321,1.585c-0.355,1.795-0.679,3.585-0.979,5.358
	c-0.268,1.585-0.516,3.158-0.748,4.712C641.972,397.527,626.972,504.811,634.717,608.533z"/>
<path style="fill:#E7B680;" d="M636.443,627.988c13.019,2.154,26.101,3.971,39.296,5.039c12.353,0.999,24.725,1.747,37.048,1.846
	c-25.294-6.856-51.115-12.25-77.233-16.13C635.831,621.827,636.124,624.909,636.443,627.988z"/>
<path style="fill:#15162B;" d="M894.098,557.637c-7.326,0-13.364,8.6-14.189,19.678c-0.063,0.852-0.097,1.718-0.097,2.596
	c0,12.302,6.395,22.275,14.286,22.275c7.89,0,14.286-9.973,14.286-22.275c0-5.324-1.199-10.21-3.197-14.042
	C902.568,560.847,898.573,557.637,894.098,557.637z"/>
<path style="fill:#15162B;" d="M1000.927,557.637c-4.672,0-8.82,3.497-11.426,8.904c-1.795,3.724-2.86,8.354-2.86,13.371
	c0,12.302,6.396,22.275,14.286,22.275c7.89,0,14.286-9.973,14.286-22.275c0-0.458-0.01-0.914-0.027-1.365
	C1014.733,566.881,1008.523,557.637,1000.927,557.637z"/>
<path style="fill:#15162B;" d="M947.866,687.11c2.13,3.999,5.016,7.41,8.81,9.841c4.672,2.996,10.26,4.502,16.083,4.502
	c5.291,0,10.775-1.245,15.927-3.747c9.807-4.76,16.202-13.155,17.106-22.46c0.268-2.74-1.739-5.182-4.483-5.447
	c-2.747-0.297-5.179,1.739-5.447,4.482c-0.568,5.817-4.877,11.218-11.533,14.448c-7.603,3.691-16.345,3.618-22.27-0.178
	c-10.471-6.711-10.742-28.418-6.941-41.27c1.182-0.965,2.349-1.947,3.495-2.952c3.343-2.93,6.604-6.126,8.448-10.121
	c1.845-3.996,2.03-8.974-0.578-12.543c-0.355-0.485-0.75-0.932-1.179-1.344c-2.17-2.084-5.204-3.278-8.203-4.005
	c-5.311-1.289-10.916-1.411-16.281-0.356c-3.654,0.719-7.316,2.053-9.945,4.629c-8.168,8.001,0.954,19.001,9.398,25.4
	c0.037,0.246,0.094,0.492,0.17,0.738c3.976,12.772,3.852,35.016-6.772,41.825c-5.93,3.793-14.665,3.866-22.27,0.178
	c-6.655-3.23-10.965-8.631-11.533-14.448c-0.268-2.743-2.687-4.774-5.447-4.482c-2.743,0.265-4.75,2.707-4.482,5.447
	c0.903,9.306,7.298,17.7,17.106,22.46c5.155,2.502,10.636,3.747,15.927,3.747c5.82,0,11.41-1.505,16.083-4.502
	C942.85,694.52,945.736,691.109,947.866,687.11z"/>
<path style="fill:#15162B;" d="M932.018,403.137c0.984,1.25,2.446,1.902,3.922,1.902c1.082,0,2.171-0.348,3.084-1.069
	c2.166-1.705,2.538-4.843,0.833-7.006c-7.504-9.524-13.046-20.49-16.47-32.086c-5.192-17.585-5.513-36.62-0.407-54.281
	c0.767-2.648-0.76-5.413-3.406-6.178c-2.65-0.772-5.413,0.762-6.177,3.405c-5.541,19.165-5.294,39.797,0.162,58.929
	C917.312,379.912,923.527,392.361,932.018,403.137z"/>
<path style="fill:#15162B;" d="M953.645,402.111c0.626,2.193,2.624,3.625,4.797,3.625c0.453,0,0.911-0.063,1.369-0.193
	c2.65-0.755,4.185-3.515,3.432-6.165c-3.578-12.566-4.41-25.814-2.705-38.733c2.276-17.248,9.078-33.906,19.93-47.565
	c1.713-2.158,1.355-5.296-0.804-7.011c-2.161-1.712-5.294-1.357-7.011,0.804c-12.391,15.598-20,34.743-22.239,54.484
	C948.87,374.982,949.881,388.889,953.645,402.111z"/>
<path style="fill:#15162B;" d="M974.471,396.791c-0.022,2.755,2.195,5.006,4.95,5.028h0.039c2.738,0,4.967-2.207,4.989-4.95
	c0.099-12.487,2.78-24.866,7.621-36.341c6.986-16.559,18.47-31.233,33.199-41.617c2.253-1.589,2.792-4.702,1.203-6.953
	c-1.589-2.254-4.697-2.794-6.953-1.203c-17.295,12.192-30.536,29.744-38.057,49.459C977.018,371.87,974.571,384.282,974.471,396.791
	z"/>
<path style="fill:#15162B;" d="M1081.94,386.167c2.032,1.866,5.184,1.735,7.05-0.292c20.338-22.102,34.913-49.186,42.151-78.331
	c3.417-13.776,7.279-26.304,16.85-28.294c12.344-2.585,21.596,15.033,24.149,20.49c18.124,38.743,25.332,83.476,20.297,125.958
	c-0.324,2.736,1.632,5.218,4.368,5.542l0.594,0.034c2.493,0,4.646-1.866,4.948-4.402c5.25-44.302-2.268-90.954-21.169-131.362
	c-8.904-19.035-22.088-28.765-35.218-26.029c-16.504,3.432-21.318,22.826-24.504,35.659c-6.833,27.525-20.599,53.106-39.807,73.978
	C1079.782,381.147,1079.913,384.302,1081.94,386.167z"/>
<path style="fill:#15162B;" d="M679.741,444.316c0.621,2.2,2.621,3.637,4.799,3.637c0.448,0,0.904-0.061,1.357-0.19
	c2.653-0.748,4.195-3.505,3.447-6.156c-11.776-41.732-11.647-87.664,0.358-129.332c1.693-5.876,8.046-25.094,20.994-24.385
	c9.929,0.477,15.793,12.424,21.408,25.69c11.861,28.019,30.735,52.813,54.582,71.7c2.161,1.71,5.298,1.347,7.009-0.811
	c1.713-2.161,1.347-5.298-0.811-7.009c-22.541-17.854-40.38-41.286-51.591-67.768c-5.216-12.326-13.099-30.95-30.119-31.771
	c-13.55-0.66-25.174,11.162-31.06,31.591C667.6,352.944,667.468,400.818,679.741,444.316z"/>
<path style="fill:#15162B;" d="M1130.11,907.896c56.702-36.363,98.361-97.524,111.44-163.605c0.536-2.703-1.223-5.327-3.925-5.863
	c-2.718-0.541-5.33,1.223-5.863,3.924c-12.563,63.473-52.577,122.219-107.04,157.145c-54.458,34.926-124.548,46.789-187.469,31.732
	c-2.682-0.634-5.372,1.013-6.015,3.69c-0.641,2.68,1.011,5.372,3.691,6.015c18.706,4.475,38.019,6.667,57.386,6.667
	C1040.783,947.602,1089.596,933.879,1130.11,907.896z"/>
<path style="fill:#15162B;" d="M1148.13,1649.669c-40.848,55.115-40.292,133.8,1.291,183.025c0.987,1.167,2.395,1.769,3.813,1.769
	c1.137,0,2.28-0.387,3.218-1.179c2.105-1.776,2.368-4.926,0.592-7.031c-38.044-45.033-38.438-119.99-0.899-170.645
	c34.672-46.784,99.814-72.382,165.917-65.255c1.868,0.205,3.671-0.652,4.701-2.214c1.028-1.559,1.099-3.564,0.183-5.192
	c-52.073-92.541-62.641-207.771-28.273-308.24c34.367-100.47,113.298-185.081,211.14-226.341c2.538-1.07,3.729-3.998,2.658-6.536
	c-1.072-2.536-3.998-3.732-6.536-2.658c-100.419,42.346-181.43,129.188-216.703,232.304
	c-34.263,100.168-25.009,214.628,24.536,308.153C1247.394,1575.394,1183.217,1602.322,1148.13,1649.669z"/>
<path style="fill:#F5A689;" d="M813.37,665.743c-0.828,1.854-2.65,2.957-4.557,2.957c-0.68,0-1.372-0.141-2.032-0.436
	c-16.056-7.169-32.497-13.683-49.246-19.536c-5.775,4.444-10.521,9.91-13.858,16.099c21.437,2.944,42.587,6.955,63.197,12.029
	c2.675,0.661,4.31,3.362,3.652,6.039c-0.56,2.273-2.599,3.795-4.84,3.795l-1.198-0.144c-21.068-5.187-42.712-9.246-64.648-12.173
	c-0.776,2.833-1.277,5.766-1.475,8.777c-0.4,6.089,0.474,11.983,2.415,17.487c20.759-2.698,41.633-4.728,62.492-6.062
	c2.782-0.19,5.123,1.91,5.298,4.66c0.176,2.751-1.912,5.123-4.66,5.298c-19.527,1.248-39.066,3.114-58.508,5.571
	c9.127,14.35,26.187,24.429,46.305,25.442c31.258,1.574,58.056-19.333,59.854-46.697c1.798-27.364-22.084-50.823-53.342-52.397
	c-10.676-0.537-20.83,1.549-29.647,5.618c14.341,5.214,28.45,10.909,42.279,17.082C813.366,660.277,814.493,663.227,813.37,665.743z
	"/>
<path style="fill:#F5A689;" d="M1101.497,709.946c0.161-2.75,2.577-4.792,5.267-4.697c21.946,1.253,43.915,3.277,65.753,6.038
	c3.134-5.887,5.073-12.358,5.533-19.204c0.194-2.883,0.117-5.726-0.208-8.511c-24.583,3.14-48.831,7.696-72.35,13.658l-1.228,0.154
	c-2.232,0-4.261-1.503-4.833-3.764c-0.677-2.67,0.938-5.384,3.611-6.061c23.597-5.981,47.915-10.571,72.57-13.757
	c-2.385-6.935-6.367-13.314-11.601-18.804c-20.81,6.981-41.169,14.978-60.936,23.964c-0.67,0.305-1.371,0.451-2.063,0.451
	c-1.895,0-3.707-1.089-4.543-2.926c-1.14-2.509-0.032-5.466,2.475-6.607c18.3-8.32,37.098-15.805,56.286-22.434
	c-9.941-7.01-22.48-11.477-36.324-12.158c-34.658-1.706-64.37,20.955-66.364,50.616c-1.994,29.661,24.486,55.089,59.144,56.795
	c22.194,1.093,42.359-7.808,54.517-22.139c-19.942-2.413-39.984-4.204-60.01-5.348
	C1103.443,715.054,1101.34,712.695,1101.497,709.946z"/>
<path style="fill:#15162B;" d="M1155.23,647.445c-19.188,6.629-37.986,14.114-56.286,22.434c-2.507,1.14-3.615,4.098-2.475,6.607
	c0.836,1.837,2.648,2.926,4.543,2.926c0.692,0,1.393-0.146,2.063-0.451c19.767-8.986,40.126-16.983,60.936-23.964
	c23.456-7.869,47.488-14.445,71.897-19.685c44.354-9.521,89.953-14.634,135.613-15.072c2.755-0.027,4.967-2.282,4.941-5.038
	c-0.027-2.738-2.256-4.94-4.989-4.94h-0.049c-45.911,0.442-91.765,5.539-136.393,15.035
	C1207.889,631.072,1181.201,638.473,1155.23,647.445z"/>
<path style="fill:#15162B;" d="M1175.612,673.801c-24.656,3.186-48.974,7.776-72.57,13.757c-2.673,0.677-4.288,3.391-3.611,6.061
	c0.573,2.26,2.602,3.764,4.833,3.764l1.228-0.154c23.519-5.961,47.766-10.518,72.35-13.658c21.269-2.717,42.79-4.373,64.31-4.955
	c40.698-1.102,81.388,1.63,120.353,8.267c2.743,0.477,5.293-1.367,5.756-4.081c0.463-2.716-1.364-5.293-4.081-5.756
	c-40.094-6.829-81.985-9.588-123.862-8.354C1218.662,669.331,1197.01,671.036,1175.612,673.801z"/>
<path style="fill:#15162B;" d="M1172.517,711.287c-21.839-2.761-43.807-4.785-65.753-6.038c-2.69-0.095-5.106,1.946-5.267,4.697
	c-0.156,2.75,1.946,5.108,4.697,5.266c20.026,1.144,40.068,2.935,60.01,5.348c31.437,3.804,62.625,9.158,93.106,15.97
	c33.505,7.489,66.156,16.739,97.342,27.634c0.545,0.19,1.101,0.283,1.646,0.283c2.061,0,3.99-1.289,4.709-3.345
	c0.908-2.602-0.463-5.447-3.062-6.356c-33.559-11.726-68.791-21.566-104.951-29.38
	C1227.918,719.516,1200.323,714.802,1172.517,711.287z"/>
<path style="fill:#15162B;" d="M635.555,618.743c26.118,3.881,51.939,9.274,77.233,16.13c15.121,4.099,30.053,8.722,44.747,13.856
	c16.749,5.852,33.19,12.367,49.246,19.536c0.661,0.295,1.352,0.436,2.032,0.436c1.907,0,3.729-1.103,4.557-2.957
	c1.123-2.516-0.004-5.466-2.521-6.59c-13.829-6.173-27.938-11.868-42.279-17.082c-8.278-3.01-16.634-5.858-25.059-8.543
	c-35.268-11.238-71.745-19.617-108.794-24.996c-0.044-0.006-0.088-0.012-0.132-0.018l0,0c-31.919-4.627-64.261-7.031-96.615-7.122
	h-0.015c-2.747,0-4.982,2.224-4.989,4.974c-0.007,2.755,2.22,4.996,4.974,5.004c32.654,0.091,65.292,2.575,97.481,7.352h0
	C635.466,618.73,635.51,618.736,635.555,618.743z"/>
<path style="fill:#15162B;" d="M739.838,674.374c21.936,2.926,43.58,6.986,64.648,12.173l1.198,0.144c2.241,0,4.28-1.522,4.84-3.795
	c0.658-2.677-0.977-5.379-3.652-6.039c-20.61-5.073-41.76-9.084-63.197-12.029c-34.081-4.682-68.885-6.663-103.394-5.91
	c-32.066,0.7-63.877,3.759-94.615,9.21c-2.711,0.482-4.521,3.072-4.041,5.786c0.482,2.706,3.052,4.526,5.785,4.042
	c30.688-5.443,62.465-8.464,94.489-9.094C674.588,668.216,707.531,670.064,739.838,674.374z"/>
<path style="fill:#15162B;" d="M803.909,704.535c2.747-0.176,4.835-2.548,4.66-5.298c-0.175-2.75-2.516-4.85-5.298-4.66
	c-20.859,1.334-41.732,3.364-62.492,6.062c-29.89,3.883-59.542,9.154-88.57,15.732c-35.063,7.946-69.215,17.798-101.774,29.424
	c-2.594,0.929-3.946,3.781-3.021,6.378c0.728,2.039,2.651,3.313,4.699,3.313c0.558,0,1.123-0.095,1.679-0.292
	c32.324-11.542,66.242-21.318,101.069-29.192c29.66-6.707,59.98-12.033,90.539-15.895
	C764.843,707.649,784.382,705.783,803.909,704.535z"/>
</svg>
